<svg xmlns="http://www.w3.org/2000/svg" width="274" height="120" fill="none"><path fill="#fff" fill-rule="evenodd" d="M137.999.022a2.13 2.13 0 0 1 1.729.507q.488 1.75.741 3.551a147 147 0 0 1-1.976 13.443q3.718 3.74 6.668-.761a65 65 0 0 1 3.952-13.697l1.729-1.775q1.814-.59 2.469 1.268a703 703 0 0 0-5.433 16.74q3.5.72 5.68-2.03a53 53 0 0 1 6.668-13.188q2.219-1.143 2.964 1.268a35 35 0 0 0-.741 2.79 426 426 0 0 0-6.668 11.92 8.53 8.53 0 0 0 3.704 2.284 97.4 97.4 0 0 1 8.891-14.204q3.186-1.415 2.964 2.03a287 287 0 0 1-8.397 13.695q-.494.762 0 1.522 1.698.982 2.964 2.536a212 212 0 0 0 11.854-12.681q.572.11.988.507a5.02 5.02 0 0 1-.247 3.55 1046 1046 0 0 1-5.927 5.58 18 18 0 0 0-3.458 5.327l4.693 4.82q5.782-4.674 10.125-10.907 2.456-.887 2.964 1.775a24.7 24.7 0 0 1-2.223 3.551 85 85 0 0 0-7.903 7.61 7.96 7.96 0 0 0-1.235 3.55q3.656-3.334 8.397-5.326a24 24 0 0 0 5.928-2.03q2.486-.783 2.963 1.776-.022 1.164-.988 1.775a95 95 0 0 0-13.336 6.341q-.838 1.198-.247 2.537.085 1.908 1.482 3.043a48.7 48.7 0 0 0 7.162-3.804 78 78 0 0 1 5.68-1.776q5.245 1.992.247 4.82-5.935 2.03-11.854 4.057-3.252 3.23-.494 6.595 7.677.209 15.312 1.014 1.728.945.988 2.537-8.232.427-16.3 1.014-2.753 3.001 0 6.087 6.742 1.176 13.336 3.044a9.55 9.55 0 0 1 2.964 4.058q-.822 1.416-2.47 1.268a44.9 44.9 0 0 1-16.3-4.058q-.246.254-.494.507l.988 1.522q3.773.58 7.409 1.776a39 39 0 0 0 6.421 4.058q3.549 2.48.247 4.819a144 144 0 0 1-16.053-8.117 3.6 3.6 0 0 0-1.481 1.015 60 60 0 0 0 4.445 4.82q6.383 3.13 8.891 9.89-.247 1.27-1.482 1.523a413 413 0 0 0-12.842-10.4q-1.573-1.204-3.211-.253-.494.76 0 1.522a65.5 65.5 0 0 0 11.855 11.667q.575 2.229-.247 4.312-1.583.483-2.964-.508a36 36 0 0 0-4.445-3.55 43 43 0 0 0-9.138-9.892q-2.198 1.134-.494 3.043a39 39 0 0 1 5.433 8.624 35.6 35.6 0 0 1 5.68 6.594q-1.113 2.787-3.704 1.522a104.6 104.6 0 0 1-10.62-16.232q-2.464-.645-3.951 1.775a110 110 0 0 0 10.125 14.457q1.38 3.213-1.235 5.58-2.448-1.12-3.704-3.551a186 186 0 0 1-5.433-11.667q-3.35-4.915-6.669-.254a318 318 0 0 0 5.681 12.936q.82 2.728.741 5.58-1.904.723-3.705 0a80.2 80.2 0 0 1-5.927-17.755q-2.214-.672-4.199.761a246 246 0 0 1 3.211 17.501q-2.693 2.152-4.445-1.015a110 110 0 0 1-3.458-14.203 3.7 3.7 0 0 0-.988-1.522 413 413 0 0 0-4.445 18.262q-.825 1.392-2.223 1.268a29.7 29.7 0 0 1 .247-10.906q1.629-4.35 3.211-8.624.207-1.615-1.235-2.029-1.226.244-1.482 1.522a63 63 0 0 1-5.433 16.232q-3.596 3.48-2.964-1.521a85 85 0 0 0 5.186-15.472q-1.014-2.571-3.457-1.268a176 176 0 0 1-6.915 16.232 4.77 4.77 0 0 1-2.964.508q.17-3.956 1.729-7.609l4.445-9.131q.55-1.477-.247-2.79-.95-.52-1.729.254l-1.481 3.55a92 92 0 0 0-9.385 12.682q-2.093 1.146-2.717-1.268a585 585 0 0 1 7.656-13.95l2.47-2.029q-.778-3.8-4.693-2.79a275 275 0 0 0-13.089 14.964q-2.275-.72-1.482-3.043a611 611 0 0 0 12.596-13.95 3.13 3.13 0 0 0-2.47 0 211 211 0 0 0-13.336 11.16q-2.044.743-2.964-1.268 1.806-3 4.445-5.327l9.385-6.594 1.976-2.536a10 10 0 0 0-1.729-1.269 93 93 0 0 1-9.632 5.834 180 180 0 0 0-7.162 5.834 1.93 1.93 0 0 1-.987-.508q-.69-4.137 3.21-5.833 5.307-2.852 10.373-6.087 1.355-.847 1.235-2.283a1.8 1.8 0 0 0-.741-.507 46.6 46.6 0 0 1-10.373 5.326q-3.32 4.25-8.397 3.297l-.494-1.014a19.6 19.6 0 0 1 2.47-2.79 8130 8130 0 0 1 14.818-8.117q3.07-3.713-.988-1.014-5.745.952-11.36 2.536a48.2 48.2 0 0 1-9.88 0q-.794-2.035.989-3.55a234 234 0 0 1 14.818-1.522 20 20 0 0 0 6.915-1.522q1.665-1.518 1.482-3.805a256 256 0 0 0-22.227.507q-3.213-1.146-.988-3.804a231 231 0 0 1 21.239.254q-.064-2.464.988-4.566a280 280 0 0 0-18.276-2.282q-3.16-1.04-2.222-4.312.537-.426 1.234-.507a380 380 0 0 1 12.349 3.297q2.47.507 4.94 0 2.97-1.789 2.222-5.327a4.7 4.7 0 0 0-1.235-.76 502 502 0 0 0-18.77 0q-2.377-.864-1.975-3.044 8.382-.738 16.793-1.014.339-.315.495-.761a13 13 0 0 0-1.976-2.283 145 145 0 0 1-9.385-6.595q-1.471-4.324 2.964-3.55a47.5 47.5 0 0 0 12.842 9.638q4.92 1.656 3.951-3.297a318 318 0 0 0-13.83-9.892q-2.805-2.778.988-4.312a79.8 79.8 0 0 1 13.336 10.399q1.144.903 2.47.507a10.5 10.5 0 0 0 2.47-3.55 73 73 0 0 0-10.62-11.414q-.974-2.8 1.729-3.55a40.8 40.8 0 0 1 9.632 8.623l1.481 3.55q.778.774 1.729.254.809-1.57.247-3.297a499 499 0 0 0-6.915-13.696q-1.662-5.016 3.211-3.805a877 877 0 0 1 8.397 18.008 9.3 9.3 0 0 0 1.975-3.044 38.2 38.2 0 0 0-3.21-7.101 148 148 0 0 0-2.223-9.385q1.59-2.397 3.705-.253a160 160 0 0 1 2.963 12.174q.677 3.249 3.705 2.79.966-.612.988-1.775a44.3 44.3 0 0 1-2.223-15.726q1.137-3.112 3.457-1.014a273 273 0 0 1 1.976 16.232q2.681 1.56 5.434-.507l.493-18.261a8.5 8.5 0 0 1 2.223-1.522m-.988 22.827a60 60 0 0 1 15.312 1.268q1.665.79 3.211 1.775.494 1.269 0 2.537a90 90 0 0 1-4.692 9.891 98 98 0 0 0-9.385.761 7.2 7.2 0 0 1-2.717-2.536 104 104 0 0 0-2.223-12.175q.137-.825.494-1.521m-6.915 1.521q2.328.228 3.211 2.537 2.706 5.76 2.716 12.174-3.014.37-4.692-2.029a58 58 0 0 0-3.705-10.652q1.268-1.055 2.47-2.03m29.142 4.059q3.07.115 4.94 2.536a20.6 20.6 0 0 0-3.952 5.326q1.471 4.536 5.434 7.102a21.3 21.3 0 0 1-4.199 3.297 4.37 4.37 0 0 1-1.976-1.522q-.867-2.168-1.728-4.311a17.6 17.6 0 0 1-3.952-1.522 57 57 0 0 0 3.211-7.863 14.6 14.6 0 0 1 2.222-3.043m-35.563.507q.926.058 1.235 1.014a81 81 0 0 1 3.704 10.653q-.944 2.365-3.21 3.55a93 93 0 0 1-5.187-11.666 17.4 17.4 0 0 0 3.458-3.551m-7.903 3.55q1.4 1.894.988 4.566a15.6 15.6 0 0 1-3.952-.254 37 37 0 0 0 2.964-4.311m49.888 2.03q3.323.112 3.951 3.55-1.407 2.685-3.704.508-1.344-1.962-.247-4.058m-55.321 6.594a62 62 0 0 1 7.903.254 18.6 18.6 0 0 1 3.457 5.326 16.2 16.2 0 0 1-4.198 4.058q-1.439 3.3-2.717 6.595a30.5 30.5 0 0 1-7.903-9.385 19.1 19.1 0 0 1 3.458-6.848m33.093 1.015a10.1 10.1 0 0 1 4.94.76q-2.679 4.548-5.433 0 .412-.29.493-.76m-7.903.507a19.7 19.7 0 0 1 4.446.254q1.55 4.382 5.68 6.34a67 67 0 0 1 7.903-5.58q3.087 1.142 4.199 4.312a49 49 0 0 1-13.831 8.624q-3.42.987-5.68-1.776a97 97 0 0 1-3.704-10.398q.267-1.092.987-1.776m-6.421 2.536q4.476 6.15 6.668 13.697 2.148 4.62 6.669 2.282a60.5 60.5 0 0 0 13.83-8.623q3.79-1.924 5.186 2.282.735 1.482.494 3.044l-2.717 2.79a61 61 0 0 1-9.878 3.55q-3.173 2.851-1.235 6.849a144 144 0 0 1 6.668 19.276q-.106 2.358-2.47 2.79a15.6 15.6 0 0 1-3.951.254q.005-1.932.494-3.805-.735-2.274-1.482-4.565a4.8 4.8 0 0 0 .247-3.298q-1.537-7.837-5.68-14.457-4.317.203-8.397 2.03l-4.94 2.029q-.849 1.656-2.469 2.282-3.28-1.59-4.446-5.073a36.2 36.2 0 0 1 9.879-3.043q1.853-3.076-.247-6.087l-5.433-9.131q-.599-1.583.247-3.044 1.786-.655 2.963-2.029m40.009 0q2.38-.37 4.199 1.015 2.39 4.976 3.21 10.652-.098 1.599-1.481 2.283-4.2.507-8.397 0a3.53 3.53 0 0 1-1.235-1.775 27.4 27.4 0 0 1-.988-8.117 3.54 3.54 0 0 1 1.235-1.775q2.03-.78 3.457-2.283m-46.43 6.087q3.38 3.662 4.693 8.624.788 2.979-2.223 3.297a9.9 9.9 0 0 1-4.446 0q-1.358-.38-1.728-1.775-1.698-6.578 3.704-10.146m-16.3 3.044q1.054.16 1.976.761a23 23 0 0 0 3.457 4.565q3.56 1.248 4.94 4.82-.765 2.557-3.458 2.536-4.574-1.522-6.668-6.087a34 34 0 0 0-3.21-2.283q1.043-2.54 2.963-4.312m64.212 8.116q8.194-.339 4.939 7.356a31 31 0 0 0-8.15.253q-1.46.025-2.222-1.268 1.59-2.127 1.729-4.819a94 94 0 0 1 3.704-1.522m-9.879 1.015q1.725-.193 2.964 1.014l-1.482 3.044q-4.422 2.893-5.68 8.116-.548.817-1.482 1.015-3.256-3.945-2.964-9.131 2.87-1.349 6.175-1.775a5.47 5.47 0 0 0 2.469-2.283m-55.815 3.044q1.92.477 3.458 1.775-2.91 1.549-3.458-1.775m10.373 4.058q6.735-.693 5.927 6.087l-7.409 4.311q-2.287.645-4.198-.76a93 93 0 0 1-2.717-5.834 3.28 3.28 0 0 1 1.482-1.522q3.762-.452 6.915-2.282m21.239.507q2.72-.132 3.705 2.536 1.587 2.949 1.235 6.087a6.77 6.77 0 0 1-4.446.254l-7.409-3.55q2.756-3.73 6.915-5.327m26.179 1.522a18.9 18.9 0 0 1 7.162 1.014 16.3 16.3 0 0 1 5.187-1.014q-1.692 6.936-7.657 10.652-4.101-3.464-5.186-8.877.11-.956.494-1.775m-3.458 5.072q4.461 3.076 4.199 8.624-1.837 2.412-4.692 1.775-2.249-2.436-.988-5.58a14 14 0 0 0-.988-2.282 15 15 0 0 1 2.469-2.537m-34.575 1.522q2.719-.132 3.704 2.536a86 86 0 0 1 4.199 11.668q-.287.928-1.235 1.014a18.6 18.6 0 0 1-3.211-1.268 92 92 0 0 1-1.728-7.863q-1.07-1.26-2.717-1.014-.225 2.827.988 5.326-.653 1.12-1.976 1.268-5.298-1.07-8.397-5.58a7.6 7.6 0 0 1 1.482-1.775 443 443 0 0 1 8.891-4.312m6.915 3.044q4.776 2.244 9.879 2.029 3.092 4.856 2.716 10.652-7.49 3.442-9.878-4.565a78 78 0 0 1-2.717-8.116" clip-rule="evenodd" opacity=".3"/><path fill="#fff" d="M8.832 57.744h14.352l.048 2.448H8.448zm6.432-17.904.864 1.152L6.48 69.024q0 .24.528.48.528.192 1.392.336.864.096 1.872.096h.864V72H.336v-2.064h.288q1.296 0 2.112-.432t1.296-1.824l10.32-29.76h4.56l10.752 30.576q.336.96 1.104 1.2.816.24 1.968.24h.24V72H20.688v-2.064h.816q.864 0 1.776-.048.96-.048 1.584-.144.624-.144.624-.288zm35.055 16.656 4.272-.72 7.104 12.768q.336.624.768.912.48.288 1.152.384t1.488.096h.336V72h-7.056zm-5.952 12.96q0 .144.336.24a24 24 0 0 1 .864.144q.576.048 1.248.096h1.92V72H35.439v-2.064h.48q1.728 0 2.88-.336t1.152-1.392V41.712q0-1.056-1.152-1.392t-2.88-.336h-.48V37.92h13.776q3.888 0 6.624 1.248 2.784 1.2 4.272 3.408 1.488 2.16 1.488 5.04 0 2.4-1.056 4.32-1.056 1.872-3.024 3.168-1.92 1.296-4.656 1.872-.576.096-1.248.192-.624.048-1.296.144-.672.048-1.392.048h-5.52v-2.448h5.52q2.784 0 4.512-.864 1.728-.912 2.544-2.544.864-1.632.864-3.888 0-2.208-.864-3.792t-2.592-2.448-4.272-.864h-4.752zm31.496-11.712h14.352l.048 2.448H75.48zm6.432-17.904.864 1.152-9.648 28.032q0 .24.528.48.528.192 1.392.336.864.096 1.872.096h.864V72h-10.8v-2.064h.288q1.296 0 2.112-.432t1.296-1.824l10.32-29.76h4.56l10.752 30.576q.336.96 1.104 1.2.816.24 1.968.24h.24V72H87.719v-2.064h.816q.864 0 1.776-.048.96-.048 1.584-.144.624-.144.624-.288zm29.199 29.424q0 .24.336.336.384.096.912.192.576.096 1.248.144h2.496V72h-13.92v-2.064h.48q1.728 0 2.88-.336t1.152-1.392V41.712q0-1.056-1.152-1.392t-2.88-.336h-.48V37.92h14.112q5.904 0 9.216 2.688t3.312 7.248q0 3.072-1.584 5.376-1.536 2.304-4.416 3.648-2.832 1.296-6.768 1.296h-6.384V55.68h6.288q2.736 0 4.512-.96 1.824-.96 2.688-2.688.912-1.776.912-4.128 0-2.4-.864-4.032t-2.64-2.496q-1.728-.864-4.368-.864h-5.088zm26.151-11.52h14.352l.048 2.448h-14.784zm6.432-17.904.864 1.152-9.648 28.032q0 .24.528.48.528.192 1.392.336.864.096 1.872.096h.864V72h-10.8v-2.064h.288q1.296 0 2.112-.432t1.296-1.824l10.32-29.76h4.56l10.752 30.576q.336.96 1.104 1.2.816.24 1.968.24h.24V72h-12.288v-2.064h.816q.864 0 1.776-.048.96-.048 1.584-.144.624-.144.624-.288zm24.687 28.368V41.712q0-1.056-1.152-1.392t-2.88-.336h-.48V37.92h13.44v2.064h-.432q-1.728 0-2.88.336t-1.152 1.392v26.496q0 1.056 1.152 1.392t2.88.336h.432V72h-13.44v-2.064h.48q1.728 0 2.88-.336t1.152-1.392M181.83 72v-2.064h.528q1.152 0 2.016-.192.912-.192 1.44-.624t.528-1.2V41.712q0-.72-.528-1.056-.528-.384-1.44-.528a12.4 12.4 0 0 0-2.016-.144h-.528V37.92h11.184l9.744 30.144-.912-.144 10.032-30h10.992v2.064h-.48q-1.68 0-2.88.336-1.152.336-1.152 1.392v26.496q0 1.056 1.152 1.392t2.88.336h.48V72h-13.104v-2.064h.432q.912 0 1.728-.048.864-.048 1.392-.144.576-.144.576-.288v-30.72l.48.096-11.376 33.264h-2.88l-11.424-33.264.528.048v30.288q0 .288.576.48.624.144 1.536.24.912.048 1.728.048h.288V72zm51.955-14.256h14.352l.048 2.448h-14.784zm6.432-17.904.864 1.152-9.648 28.032q0 .24.528.48.528.192 1.392.336.864.096 1.872.096h.864V72h-10.8v-2.064h.288q1.296 0 2.112-.432t1.296-1.824l10.32-29.76h4.56l10.752 30.576q.336.96 1.104 1.2.816.24 1.968.24h.24V72h-12.288v-2.064h.816q.864 0 1.776-.048.96-.048 1.584-.144.624-.144.624-.288z"/></svg>