<svg width="274" height="120" viewBox="0 0 274 120" fill="none" xmlns="http://www.w3.org/2000/svg">
<path opacity="0.3" fill-rule="evenodd" clip-rule="evenodd" d="M137.999 0.0218419C138.652 -0.0643931 139.229 0.104729 139.728 0.529106C140.053 1.69576 140.3 2.87936 140.469 4.07996C140.014 8.6149 139.356 13.0956 138.493 17.5225C140.972 20.0162 143.194 19.7625 145.161 16.7616C145.977 12.0501 147.294 7.48471 149.113 3.06543C149.689 2.4736 150.265 1.88183 150.842 1.29C152.051 0.89667 152.875 1.31942 153.311 2.55816C151.416 8.15887 149.605 13.7388 147.878 19.2979C150.211 19.7783 152.104 19.1021 153.558 17.2688C155.173 12.5432 157.396 8.14669 160.226 4.07996C161.705 3.31769 162.693 3.74039 163.19 5.34812C162.904 6.26698 162.658 7.19694 162.449 8.13807C160.157 12.0866 157.934 16.06 155.781 20.0588C156.827 21.1453 158.062 21.9062 159.485 22.3415C162.045 17.3449 165.008 12.6106 168.376 8.13807C170.5 7.19476 171.488 7.87125 171.34 10.1671C168.664 14.8182 165.866 19.3836 162.943 23.8633C162.614 24.3705 162.614 24.8778 162.943 25.3851C164.075 26.0394 165.063 26.885 165.907 27.9214C170.058 23.8283 174.009 19.6012 177.761 15.2398C178.142 15.3133 178.472 15.4822 178.749 15.747C179.1 16.964 179.018 18.1474 178.502 19.2979C176.547 21.153 174.571 23.0131 172.575 24.8778C171.116 26.4351 169.963 28.2105 169.117 30.2041C170.714 31.8441 172.278 33.4506 173.81 35.0231C177.664 31.9085 181.04 28.2729 183.935 24.1169C185.572 23.5259 186.56 24.1179 186.899 25.8923C186.255 27.1442 185.515 28.3277 184.676 29.4432C181.893 31.7933 179.259 34.3296 176.773 37.0521C176.076 38.1428 175.664 39.3267 175.538 40.603C177.975 38.3802 180.774 36.6047 183.935 35.2767C186.017 34.8521 187.993 34.1759 189.863 33.2477C191.52 32.7247 192.508 33.3166 192.826 35.0231C192.812 35.7987 192.482 36.3907 191.838 36.7985C187.239 38.5607 182.793 40.6745 178.502 43.1393C177.943 43.9377 177.861 44.7834 178.255 45.6756C178.312 46.9478 178.806 47.9624 179.737 48.7192C182.233 47.6489 184.62 46.3807 186.899 44.9147C188.769 44.2512 190.662 43.6593 192.579 43.1393C196.076 44.4668 196.158 46.0733 192.826 47.9583C188.869 49.3122 184.918 50.6646 180.972 52.0164C178.804 54.1693 178.639 56.3677 180.478 58.6109C185.596 58.7499 190.7 59.0882 195.79 59.6254C196.942 60.2559 197.272 61.101 196.778 62.1617C191.29 62.4463 185.856 62.7846 180.478 63.1762C178.643 65.1774 178.643 67.2065 180.478 69.2634C184.973 70.0466 189.418 71.0612 193.814 72.307C195.166 73.3966 196.153 74.749 196.778 76.3651C196.23 77.3091 195.407 77.7322 194.308 77.6333C188.619 77.3061 183.186 75.9532 178.008 73.5752C177.844 73.7441 177.679 73.9135 177.514 74.0824C177.844 74.5897 178.173 75.097 178.502 75.6042C181.018 75.9908 183.487 76.5822 185.911 77.3797C187.931 78.9496 190.072 80.302 192.332 81.4378C194.698 83.0914 194.78 84.698 192.579 86.2568C187.066 83.8909 181.715 81.1852 176.526 78.1405C175.947 78.3531 175.453 78.6909 175.045 79.1551C176.436 80.8382 177.918 82.4447 179.49 83.9741C183.746 86.0615 186.709 89.3587 188.381 93.8657C188.216 94.7114 187.722 95.2186 186.899 95.3875C182.714 91.8565 178.433 88.3903 174.057 84.9886C173.007 84.1861 171.938 84.1014 170.846 84.735C170.517 85.2422 170.517 85.7495 170.846 86.2568C174.296 90.6441 178.247 94.5333 182.701 97.9239C183.084 99.4096 183.002 100.847 182.454 102.236C181.399 102.558 180.411 102.388 179.49 101.728C178.098 100.422 176.616 99.2387 175.045 98.1775C172.513 94.3933 169.466 91.0961 165.907 88.2858C164.442 89.0417 164.277 90.0562 165.413 91.3294C167.599 93.9616 169.41 96.8363 170.846 99.9529C173.015 101.925 174.908 104.123 176.526 106.547C175.784 108.405 174.549 108.912 172.822 108.069C168.783 102.993 165.243 97.583 162.202 91.8367C160.559 91.4065 159.242 91.9985 158.251 93.6121C161.248 98.7182 164.624 103.537 168.376 108.069C169.296 110.211 168.885 112.071 167.141 113.649C165.509 112.902 164.274 111.719 163.437 110.098C161.491 106.271 159.68 102.382 158.004 98.4311C155.771 95.1542 153.548 95.07 151.335 98.1775C153.133 102.532 155.027 106.844 157.016 111.113C157.563 112.932 157.81 114.792 157.757 116.693C156.488 117.175 155.253 117.175 154.052 116.693C151.388 111.02 149.412 105.102 148.125 98.9384C146.649 98.49 145.249 98.7436 143.926 99.6993C145.213 105.524 146.283 111.357 147.137 117.2C145.342 118.634 143.86 118.297 142.692 116.185C141.226 111.537 140.074 106.803 139.234 101.982C139.027 101.387 138.698 100.88 138.246 100.46C136.628 106.503 135.147 112.59 133.801 118.722C133.251 119.649 132.51 120.073 131.578 119.99C130.987 116.373 131.069 112.737 131.825 109.084C132.911 106.184 133.981 103.309 135.036 100.46C135.174 99.3833 134.762 98.7071 133.801 98.4311C132.984 98.5934 132.49 99.1007 132.319 99.9529C131.244 105.623 129.433 111.034 126.886 116.185C124.488 118.506 123.501 117.998 123.922 114.664C126.138 109.696 127.867 104.539 129.108 99.192C128.432 97.478 127.279 97.0554 125.651 97.9239C123.609 103.469 121.304 108.88 118.736 114.156C117.799 114.646 116.811 114.815 115.772 114.664C115.886 112.027 116.462 109.49 117.501 107.055C118.99 103.995 120.472 100.952 121.946 97.9239C122.313 96.9393 122.231 96.0094 121.699 95.1339C121.065 94.7869 120.489 94.8716 119.97 95.3875C119.477 96.571 118.983 97.7549 118.489 98.9384C115.001 102.892 111.872 107.12 109.104 111.62C107.708 112.384 106.803 111.961 106.387 110.352C108.866 105.685 111.418 101.035 114.043 96.4021C114.867 95.7259 115.689 95.0492 116.513 94.373C115.994 91.8397 114.43 90.9099 111.82 91.5831C107.254 96.4386 102.891 101.427 98.7311 106.547C97.2137 106.067 96.7198 105.052 97.2493 103.504C101.496 98.944 105.695 94.2944 109.845 89.554C109.021 89.2157 108.198 89.2157 107.375 89.554C102.786 93.082 98.3409 96.8018 94.0387 100.714C92.6759 101.209 91.6881 100.787 91.0751 99.4456C92.2793 97.446 93.7611 95.6706 95.5205 94.1194C98.6486 91.9214 101.777 89.7229 104.905 87.5249C105.564 86.6793 106.223 85.8342 106.881 84.9886C106.348 84.5037 105.772 84.0811 105.152 83.7205C102.064 85.8565 98.8531 87.8014 95.5205 89.554C93.0795 91.44 90.6923 93.3843 88.3584 95.3875C87.9771 95.314 87.6476 95.1451 87.3705 94.8803C86.9097 92.1218 87.9801 90.1769 90.5811 89.0467C94.1192 87.146 97.5768 85.117 100.954 82.9596C101.857 82.395 102.269 81.6341 102.189 80.6769C101.984 80.4451 101.737 80.2756 101.448 80.1696C98.2199 82.3762 94.7623 84.1516 91.0751 85.4959C88.8612 88.3289 86.0626 89.4282 82.6781 88.7931C82.5137 88.4548 82.3487 88.1169 82.1842 87.7786C82.9162 86.7727 83.7396 85.8428 84.6539 84.9886C89.5755 82.2864 94.5149 79.5807 99.472 76.8724C101.518 74.3969 101.189 74.0586 98.4841 75.8579C94.6537 76.4924 90.8671 77.3381 87.1236 78.3942C83.8305 78.7325 80.5379 78.7325 77.2448 78.3942C76.7153 77.0367 77.0448 75.8533 78.2327 74.8433C83.1489 74.1793 88.0882 73.6721 93.0508 73.3215C95.4445 73.2257 97.7492 72.7184 99.966 71.7997C101.076 70.7878 101.57 69.5196 101.448 67.9953C94.0244 67.8421 86.6153 68.0115 79.2206 68.5025C77.0794 67.7381 76.7499 66.4699 78.2327 64.698C85.3153 64.4566 92.3954 64.5413 99.472 64.9517C99.429 63.3086 99.7585 61.7869 100.46 60.3863C94.3978 59.4255 88.3061 58.6646 82.1842 58.1036C80.0771 57.4107 79.3362 55.9736 79.9615 53.7919C80.3196 53.5083 80.731 53.3394 81.1963 53.2846C85.3281 54.3138 89.4441 55.4126 93.5448 56.5818C95.1911 56.9202 96.8379 56.9202 98.4841 56.5818C100.465 55.3892 101.206 53.6138 100.707 51.2555C100.336 50.938 99.9245 50.6844 99.472 50.4946C93.2123 50.3775 86.9556 50.3775 80.7024 50.4946C79.1183 49.9189 78.4594 48.9044 78.7266 47.4511C84.3155 46.9595 89.9133 46.6212 95.5205 46.4365C95.7462 46.2265 95.9112 45.9729 96.0145 45.6756C95.4474 44.8392 94.789 44.0783 94.0387 43.3929C90.8247 41.3203 87.6965 39.1218 84.6539 36.7985C83.6729 33.9157 84.6608 32.7323 87.6175 33.2477C91.3709 37.2038 95.6514 40.4163 100.46 42.8857C103.74 43.99 105.056 42.8908 104.411 39.5885C99.8874 36.1665 95.2775 32.8692 90.5811 29.6968C88.7116 27.8448 89.0406 26.4072 91.569 25.3851C96.3489 28.3526 100.794 31.8187 104.905 35.784C105.668 36.3861 106.491 36.555 107.375 36.2912C108.44 35.2864 109.264 34.1029 109.845 32.7404C106.69 28.5316 103.15 24.7271 99.2251 21.3269C98.576 19.4597 99.1524 18.2763 100.954 17.7761C104.599 20.1166 107.81 22.9913 110.586 26.3996C111.08 27.583 111.573 28.767 112.067 29.9504C112.586 30.4663 113.162 30.551 113.796 30.2041C114.335 29.1571 114.418 28.0578 114.043 26.9069C111.811 22.3115 109.506 17.7462 107.128 13.2107C106.02 9.86734 107.09 8.59917 110.339 9.40623C113.224 15.4158 116.023 21.4183 118.736 27.4141C119.588 26.5376 120.247 25.523 120.711 24.3705C119.876 21.8778 118.806 19.5109 117.501 17.2688C116.861 14.1131 116.12 10.9848 115.278 7.88444C116.339 6.28564 117.573 6.20113 118.983 7.63081C120.13 11.6529 121.118 15.711 121.946 19.8051C122.397 21.9712 123.632 22.9015 125.651 22.5951C126.295 22.1873 126.624 21.5953 126.639 20.8197C124.951 15.708 124.21 10.4659 124.416 5.09448C125.174 3.01932 126.326 2.68112 127.873 4.07996C128.694 9.46812 129.352 14.8791 129.849 20.3124C131.636 21.3518 133.448 21.1824 135.283 19.8051C135.447 13.718 135.612 7.63081 135.776 1.54363C136.472 0.893778 137.213 0.386514 137.999 0.0218419ZM137.011 22.8487C142.171 22.6149 147.275 23.0374 152.323 24.1169C153.433 24.6439 154.503 25.2359 155.534 25.8923C155.863 26.7379 155.863 27.583 155.534 28.4286C154.16 31.8425 152.596 35.1398 150.842 38.3203C147.688 38.4248 144.56 38.6784 141.457 39.0812C140.34 38.4816 139.434 37.636 138.74 36.5449C138.241 32.4406 137.5 28.3825 136.517 24.3705C136.609 23.8207 136.773 23.3134 137.011 22.8487ZM130.096 24.3705C131.648 24.5222 132.718 25.3678 133.307 26.9069C135.111 30.7479 136.016 34.806 136.023 39.0812C134.014 39.3277 132.449 38.6515 131.331 37.0521C130.448 33.4024 129.213 29.8515 127.626 26.3996C128.471 25.696 129.295 25.0193 130.096 24.3705ZM159.238 28.4286C161.285 28.5057 162.931 29.3514 164.178 30.965C162.57 32.5299 161.252 34.3053 160.226 36.2912C161.207 39.3156 163.018 41.6824 165.66 43.3929C164.385 44.6794 162.986 45.7781 161.461 46.6902C160.668 46.3853 160.01 45.878 159.485 45.1684C158.907 43.7227 158.331 42.2851 157.757 40.8566C156.36 40.501 155.043 39.9938 153.805 39.3348C155.066 36.8051 156.136 34.1841 157.016 31.4722C157.647 30.3324 158.387 29.3179 159.238 28.4286ZM123.675 28.9359C124.292 28.975 124.704 29.3133 124.91 29.9504C126.391 33.4135 127.625 36.9644 128.614 40.603C127.985 42.1801 126.915 43.3635 125.404 44.1538C123.421 40.4168 121.692 36.5276 120.217 32.4868C121.545 31.4616 122.697 30.2781 123.675 28.9359ZM115.772 32.4868C116.705 33.7488 117.034 35.2706 116.76 37.0521C115.433 37.1353 114.115 37.0506 112.808 36.7985C113.905 35.4223 114.893 33.9852 115.772 32.4868ZM165.66 34.5158C167.875 34.5904 169.192 35.7738 169.611 38.0667C168.673 39.8558 167.438 40.0247 165.907 38.5739C165.011 37.2662 164.929 35.9133 165.66 34.5158ZM110.339 41.1103C112.978 41.026 115.612 41.1108 118.242 41.3639C119.7 42.943 120.852 44.7184 121.699 46.6902C120.536 48.3073 119.137 49.6602 117.501 50.7483C116.542 52.9488 115.636 55.1468 114.784 57.3427C111.512 54.7455 108.877 51.6172 106.881 47.9583C107.578 45.4281 108.73 43.1454 110.339 41.1103ZM143.432 42.1248C145.15 41.9645 146.797 42.2181 148.372 42.8857C146.586 45.9171 144.775 45.9171 142.939 42.8857C143.213 42.6914 143.378 42.4378 143.432 42.1248ZM135.529 42.632C137.02 42.5483 138.502 42.6331 139.975 42.8857C141.008 45.807 142.902 47.9208 145.655 49.2265C148.142 47.1852 150.777 45.3251 153.558 43.6466C155.616 44.4075 157.016 45.8446 157.757 47.9583C153.646 51.5949 149.036 54.4691 143.926 56.5818C141.646 57.2397 139.753 56.6478 138.246 54.8064C136.815 51.4113 135.58 47.9446 134.542 44.4075C134.72 43.6801 135.049 43.0881 135.529 42.632ZM129.108 45.1684C132.092 49.2676 134.315 53.833 135.776 58.8645C137.208 61.9456 139.431 62.7065 142.445 61.1472C147.424 58.9091 152.034 56.035 156.275 52.5237C158.802 51.2408 160.531 52.0017 161.461 54.8064C161.951 55.794 162.116 56.8086 161.955 57.85C161.05 58.7798 160.144 59.7101 159.238 60.6399C156.051 62.1064 152.758 63.2899 149.36 64.1908C147.245 66.0915 146.833 68.3742 148.125 71.0388C150.801 77.2985 153.024 83.724 154.793 90.3149C154.722 91.8869 153.899 92.8167 152.323 93.1048C151.016 93.3569 149.699 93.4417 148.372 93.3585C148.375 92.071 148.54 90.8029 148.866 89.554C148.376 88.0383 147.882 86.5165 147.384 84.9886C147.858 83.9132 147.94 82.814 147.631 81.6914C146.606 76.4661 144.713 71.6471 141.951 67.2344C139.073 67.3693 136.274 68.046 133.554 69.2634C131.907 69.9396 130.261 70.6163 128.614 71.2925C128.048 72.3973 127.225 73.1582 126.145 73.5752C123.958 72.5145 122.476 70.8238 121.699 68.5025C124.817 67.0238 128.111 66.0093 131.578 65.4589C132.813 63.4076 132.731 61.3785 131.331 59.3718C129.52 56.3282 127.709 53.2846 125.898 50.241C125.499 49.1864 125.581 48.1719 126.145 47.1974C127.336 46.7607 128.323 46.0845 129.108 45.1684ZM169.117 45.1684C170.703 44.9208 172.103 45.2592 173.316 46.1829C174.909 49.5004 175.979 53.0513 176.526 56.8354C176.461 57.9012 175.967 58.6621 175.045 59.1181C172.245 59.4565 169.447 59.4565 166.648 59.1181C166.054 58.6601 165.642 58.0686 165.413 57.3427C164.677 54.6765 164.347 51.9713 164.425 49.2265C164.655 48.5006 165.066 47.9091 165.66 47.4511C167.013 46.9306 168.165 46.1697 169.117 45.1684ZM122.687 51.2555C124.94 53.696 126.504 56.5707 127.38 59.879C127.905 61.865 127.164 62.9642 125.157 63.1762C123.675 63.5146 122.193 63.5146 120.711 63.1762C119.806 62.9226 119.23 62.3306 118.983 61.4008C117.851 57.016 119.086 53.6341 122.687 51.2555ZM106.387 54.2991C107.09 54.4051 107.748 54.6588 108.363 55.06C109.327 56.7269 110.479 58.2487 111.82 59.6254C114.194 60.4568 115.84 62.0628 116.76 64.4444C116.25 66.1488 115.097 66.9944 113.302 66.9807C110.253 65.9657 108.03 63.9366 106.634 60.8936C105.607 60.0703 104.537 59.3094 103.424 58.6109C104.119 56.9171 105.107 55.4795 106.387 54.2991ZM170.599 62.4154C176.062 62.1891 177.708 64.6412 175.538 69.7707C172.817 69.4963 170.101 69.581 167.388 70.0243C166.415 70.0406 165.674 69.6175 165.166 68.7562C166.226 67.3384 166.802 65.7324 166.895 63.9371C168.162 63.3858 169.397 62.8785 170.599 62.4154ZM160.72 63.4299C161.87 63.3015 162.858 63.6399 163.684 64.4444C163.19 65.4589 162.696 66.4735 162.202 67.488C159.254 69.4166 157.361 72.1219 156.522 75.6042C156.157 76.149 155.663 76.4874 155.04 76.6188C152.869 73.9886 151.881 70.945 152.076 67.488C153.99 66.5886 156.048 65.9972 158.251 65.7126C159.318 65.2073 160.141 64.4464 160.72 63.4299ZM104.905 66.4735C106.185 66.792 107.337 67.384 108.363 68.2489C106.423 69.2817 105.27 68.6897 104.905 66.4735ZM115.278 70.5316C119.768 70.07 121.744 72.099 121.205 76.6188C118.736 78.0558 116.266 79.4934 113.796 80.9305C112.271 81.3602 110.872 81.1065 109.598 80.1696C108.621 78.2481 107.715 76.3037 106.881 74.3361C107.211 73.6599 107.704 73.1526 108.363 72.8143C110.871 72.5125 113.176 71.7516 115.278 70.5316ZM136.517 71.0388C138.33 70.9511 139.565 71.7962 140.222 73.5752C141.28 75.5413 141.691 77.5704 141.457 79.6623C140.002 80.2482 138.52 80.3324 137.011 79.916C134.542 78.7325 132.072 77.5486 129.602 76.3651C131.439 73.8795 133.744 72.1041 136.517 71.0388ZM162.696 72.5606C165.147 72.4364 167.534 72.7747 169.858 73.5752C171.539 72.9533 173.267 72.6149 175.045 72.5606C173.917 77.1854 171.365 80.7362 167.388 83.2132C164.654 80.9036 162.925 77.9447 162.202 74.3361C162.275 73.6989 162.44 73.107 162.696 72.5606ZM159.238 77.6333C162.212 79.6842 163.612 82.5583 163.437 86.2568C162.212 87.8643 160.648 88.4563 158.745 88.0322C157.246 86.4079 156.916 84.5478 157.757 82.4523C157.495 81.6615 157.166 80.9006 156.769 80.1696C157.513 79.2053 158.336 78.3597 159.238 77.6333ZM124.663 79.1551C126.476 79.0673 127.71 79.9124 128.367 81.6914C130.045 85.4751 131.444 89.3638 132.566 93.3585C132.375 93.9773 131.963 94.3157 131.331 94.373C130.222 94.0499 129.152 93.6273 128.12 93.1048C127.431 90.5183 126.855 87.8978 126.392 85.2422C125.678 84.4027 124.773 84.0644 123.675 84.2277C123.525 86.1122 123.854 87.8876 124.663 89.554C124.228 90.3002 123.569 90.7227 122.687 90.8222C119.155 90.1089 116.356 88.2488 114.29 85.2422C114.692 84.5757 115.186 83.9837 115.772 83.4668C118.783 81.9658 121.746 80.5287 124.663 79.1551ZM131.578 82.1987C134.762 83.6951 138.055 84.3713 141.457 84.2277C143.518 87.4651 144.424 91.0159 144.173 94.8803C139.18 97.1746 135.887 95.6528 134.295 90.3149C133.229 87.6228 132.324 84.9176 131.578 82.1987Z" fill="white"/>
<path d="M41.96 73.96C41.32 73.928 40.488 73.912 39.464 73.912C38.408 73.912 36.968 73.928 35.144 73.96C33.032 74.024 31.576 74.056 30.776 74.056C30.456 72.68 30.04 71.048 29.528 69.16C26.136 68.968 23.16 68.792 20.6 68.632C20.28 70.264 20.008 71.704 19.784 72.952C17.608 72.856 16.024 72.808 15.032 72.808C14.104 72.808 13.272 72.84 12.536 72.904V71.608C12.536 70.52 12.856 68.472 13.496 65.464C13.944 63.288 15.896 55.544 19.352 42.232H33.416L41.96 73.96ZM27.848 63.304C26.6 58.824 25.56 54.712 24.728 50.968C24.152 53.912 23.24 57.864 21.992 62.824C23.56 62.952 25.512 63.112 27.848 63.304ZM74.7793 74.872C72.0593 74.616 67.9953 74.28 62.5873 73.864C62.5873 73.192 62.6673 72.184 62.8273 70.84C62.9873 69.496 63.0673 68.488 63.0673 67.816C63.0673 66.44 62.9233 65.496 62.6353 64.984C62.2513 64.28 61.4353 63.928 60.1873 63.928C59.8673 63.928 59.3873 63.96 58.7473 64.024C58.1393 64.056 57.6753 64.072 57.3553 64.072C56.9713 64.072 56.6673 64.04 56.4433 63.976C55.9633 64.232 55.7233 64.984 55.7233 66.232C55.7233 66.936 55.7713 67.992 55.8672 69.4C55.9633 70.776 56.0113 71.816 56.0113 72.52C56.0113 72.872 55.9953 73.224 55.9633 73.576C53.6273 73.448 51.5633 73.384 49.7713 73.384C47.9793 73.384 46.5873 73.448 45.5953 73.576V42.616C52.3153 42.552 56.7793 42.52 58.9873 42.52C62.3793 42.52 64.5713 42.648 65.5633 42.904C65.9793 43 66.5713 43.32 67.3393 43.864C68.3953 44.664 68.9553 45.08 69.0193 45.112C71.8993 46.872 73.5313 48.488 73.9153 49.96C74.1713 50.856 74.2993 51.656 74.2993 52.36C74.2993 55.048 71.9473 57.832 67.2433 60.712C68.4913 61.416 69.7393 62.12 70.9873 62.824C72.7473 63.848 73.7233 64.696 73.9153 65.368C74.2993 66.584 74.5233 68.152 74.5873 70.072C74.6513 71.672 74.7153 73.272 74.7793 74.872ZM62.0113 57.4C61.3393 54.136 60.8913 51.368 60.6673 49.096H55.9153C55.9793 51.464 56.0113 53.256 56.0113 54.472C56.0113 55.688 55.9793 56.744 55.9153 57.64C59.3073 57.448 61.3393 57.368 62.0113 57.4ZM107.913 73.96C107.273 73.928 106.441 73.912 105.417 73.912C104.361 73.912 102.921 73.928 101.097 73.96C98.9851 74.024 97.5291 74.056 96.7291 74.056C96.4091 72.68 95.9931 71.048 95.4811 69.16C92.0891 68.968 89.1131 68.792 86.5531 68.632C86.2331 70.264 85.9611 71.704 85.7371 72.952C83.5611 72.856 81.9771 72.808 80.9851 72.808C80.0571 72.808 79.2251 72.84 78.4891 72.904V71.608C78.4891 70.52 78.8091 68.472 79.4491 65.464C79.8971 63.288 81.8491 55.544 85.3051 42.232H99.3691L107.913 73.96ZM93.8011 63.304C92.5531 58.824 91.5131 54.712 90.6811 50.968C90.1051 53.912 89.1931 57.864 87.9451 62.824C89.5131 62.952 91.4651 63.112 93.8011 63.304ZM139.964 52.36C139.964 55.144 137.676 58.184 133.1 61.48C132.236 62.088 130.604 62.68 128.204 63.256C125.996 63.768 124.252 64.024 122.972 64.024C122.62 64.024 122.332 64.008 122.108 63.976C121.628 64.232 121.388 64.984 121.388 66.232C121.388 66.936 121.436 67.992 121.532 69.4C121.628 70.776 121.676 71.816 121.676 72.52C121.676 72.872 121.66 73.224 121.628 73.576C119.292 73.448 117.228 73.384 115.436 73.384C113.644 73.384 112.252 73.448 111.26 73.576V42.616C117.98 42.552 122.444 42.52 124.652 42.52C128.044 42.52 130.236 42.648 131.228 42.904C131.644 43 132.236 43.32 133.004 43.864C134.06 44.664 134.62 45.08 134.684 45.112C137.564 46.872 139.212 48.488 139.628 49.96C139.852 50.856 139.964 51.656 139.964 52.36ZM127.676 57.4C127.004 54.136 126.556 51.368 126.332 49.096H121.58C121.644 51.464 121.676 53.256 121.676 54.472C121.676 55.688 121.644 56.744 121.58 57.64C125.004 57.448 127.036 57.368 127.676 57.4ZM169.929 73.96C169.289 73.928 168.457 73.912 167.433 73.912C166.377 73.912 164.937 73.928 163.113 73.96C161.001 74.024 159.545 74.056 158.745 74.056C158.425 72.68 158.009 71.048 157.497 69.16C154.105 68.968 151.129 68.792 148.569 68.632C148.249 70.264 147.977 71.704 147.753 72.952C145.577 72.856 143.993 72.808 143.001 72.808C142.073 72.808 141.241 72.84 140.505 72.904V71.608C140.505 70.52 140.825 68.472 141.465 65.464C141.913 63.288 143.865 55.544 147.321 42.232H161.385L169.929 73.96ZM155.817 63.304C154.569 58.824 153.529 54.712 152.697 50.968C152.121 53.912 151.209 57.864 149.961 62.824C151.529 62.952 153.481 63.112 155.817 63.304ZM185.996 45.496C185.996 45.656 185.932 46.632 185.804 48.424L185.324 55.096C185.036 59.192 184.636 65.336 184.124 73.528C182.236 73.336 179.42 73.048 175.676 72.664C175.388 68.856 175.052 63.448 174.668 56.44C174.412 51.288 174.284 48.488 174.284 48.04V42.568C177.452 42.632 179.788 42.664 181.292 42.664C182.508 42.664 184.076 42.632 185.996 42.568V45.496ZM227.195 62.776C227.195 66.808 227.163 70.312 227.099 73.288C225.243 73.448 222.443 73.688 218.699 74.008C218.315 70.552 217.675 65.208 216.779 57.976C214.699 64.664 212.875 69.8 211.307 73.384C210.507 73.736 209.547 73.912 208.427 73.912C207.915 73.912 207.691 73.912 207.755 73.912L204.587 74.392C203.051 70.712 200.651 65.24 197.387 57.976C197.387 61.336 197.355 66.376 197.291 73.096C197.163 73.096 197.003 73.096 196.811 73.096C196.523 73.096 196.059 73.112 195.419 73.144C194.811 73.208 194.347 73.24 194.027 73.24C192.875 73.24 191.915 73.064 191.147 72.712C190.987 72.648 190.907 71.16 190.907 68.248C190.907 65.336 190.987 60.936 191.147 55.048C191.307 49.352 191.387 44.952 191.387 41.848V41.752C192.219 41.528 193.147 41.416 194.171 41.416C195.099 41.416 196.427 41.496 198.155 41.656C199.915 41.816 201.211 41.912 202.043 41.944L204.107 47.128C204.139 47.256 204.299 47.832 204.587 48.856L205.451 52.168L208.379 63.208L213.275 47.896C213.595 46.84 214.139 45.32 214.907 43.336C215.003 43.144 215.083 43.048 215.147 43.048C215.499 43.048 215.963 43.064 216.539 43.096C217.275 43.16 217.755 43.192 217.979 43.192C219.099 43.224 220.587 43.24 222.443 43.24C223.563 43.24 225.035 43.24 226.859 43.24L227.147 48.712C227.147 48.904 227.163 49.944 227.195 51.832V62.776ZM261.054 73.96C260.414 73.928 259.582 73.912 258.558 73.912C257.502 73.912 256.062 73.928 254.238 73.96C252.126 74.024 250.67 74.056 249.87 74.056C249.55 72.68 249.134 71.048 248.622 69.16C245.23 68.968 242.254 68.792 239.694 68.632C239.374 70.264 239.102 71.704 238.878 72.952C236.702 72.856 235.118 72.808 234.126 72.808C233.198 72.808 232.366 72.84 231.63 72.904V71.608C231.63 70.52 231.95 68.472 232.59 65.464C233.038 63.288 234.99 55.544 238.446 42.232H252.51L261.054 73.96ZM246.942 63.304C245.694 58.824 244.654 54.712 243.822 50.968C243.246 53.912 242.334 57.864 241.086 62.824C242.654 62.952 244.606 63.112 246.942 63.304Z" fill="white"/>
</svg>