<?xml version="1.0" encoding="utf-8"?>
<!-- Generator: Adobe Illustrator 22.0.0, SVG Export Plug-In . SVG Version: 6.00 Build 0)  -->
<svg version="1.1" xmlns="http://www.w3.org/2000/svg" xmlns:xlink="http://www.w3.org/1999/xlink" x="0px" y="0px"
	 viewBox="0 0 250 250" style="enable-background:new 0 0 250 250;" xml:space="preserve">
<style type="text/css">
	.st0{fill:#11A16E;}
	.st1{display:none;}
	.st2{display:inline;fill:#65CBE1;stroke:#65CBE1;stroke-linecap:round;stroke-miterlimit:10;}
	.st3{display:inline;fill:#FFFFFF;stroke:#FFFFFF;stroke-miterlimit:10;}
	.st4{font-family:'Consolas-Bold';}
	.st5{font-size:20px;}
	.st6{display:inline;fill:#4E4493;stroke:#4E4493;stroke-miterlimit:10;}
	.st7{display:inline;fill:#226EAA;stroke:#226EAA;stroke-linecap:round;stroke-miterlimit:10;}
	.st8{display:none;fill:#11A16E;stroke:#11A16E;stroke-miterlimit:10;}
	.st9{fill:#FFFFFF;stroke:#FFFFFF;stroke-miterlimit:10;}
	.st10{fill:#E4007C;stroke:#E4007C;stroke-miterlimit:10;}
	.st11{display:inline;fill:#FFFFFF;}
	.st12{fill:#FFFFFF;}
	.st13{fill:#009696;stroke:#009696;stroke-miterlimit:10;}
</style>
<g id="Capa_8">
	<g>
		<path class="st0" d="M71.7,249.4c-38,0-58.9-0.1-62.1-0.4C-0.8,248.1,0,234.7,0,234.5l0-220C0,0.2,12,0,12.5,0h219
			c6.6,0,11.5,1.8,14.4,5.5c4.6,5.7,3.1,13.9,3.1,13.9l0,209.1c0,19.1-13.3,20.5-17.4,20.5c-0.7,0-1.1,0-1.1,0
			C229.6,249,136.4,249.4,71.7,249.4C71.7,249.4,71.7,249.4,71.7,249.4z"/>
		<path class="st0" d="M231.5,0.5c6.5,0,11.2,1.8,14.1,5.3c4.5,5.5,3,13.5,3,13.5l0,0.1v0.1v209c0,18.6-12.9,20-16.9,20
			c-0.6,0-1,0-1,0l-0.1,0l-0.1,0c-0.9,0-94.1,0.4-158.8,0.4c-38,0-58.9-0.1-62.1-0.4c-9.9-0.9-9.1-13.4-9.1-13.9l0,0v0v-220
			c0-13.8,11.5-14,12-14H231.5 M231.5-0.5c-22,0-219,0-219,0s-13,0-13,15v220c0,0-1,14,10,15c3.7,0.3,29.4,0.4,62.2,0.4
			c65.5,0,158.8-0.4,158.8-0.4s0.4,0,1.1,0c4.1,0,17.9-1.5,17.9-21c0-23,0-209,0-209S253.5-0.5,231.5-0.5L231.5-0.5z"/>
	</g>
</g>
<g id="Capa_9" class="st1">
</g>
<g id="Capa_2" class="st1">
	<circle class="st2" cx="124.3" cy="124.7" r="30.1"/>
	<polygon class="st3" points="123.9,101.4 131.4,108.6 131.4,101.4 139,101.4 139.3,115.5 147.2,126 139.3,126 139.3,145.6 
		130.8,145.6 130.8,134.4 119.3,134.4 119.3,145.6 110.5,145.6 110.5,126 101.4,126 	"/>
	
		<ellipse transform="matrix(0.7071 -0.7071 0.7071 0.7071 -51.7571 124.4223)" class="st2" cx="124.3" cy="124.7" rx="45.1" ry="45.1"/>
	<polygon class="st3" points="123.6,89.7 135,100.5 135,89.7 146.4,89.7 146.9,110.9 158.7,126.7 146.9,126.7 146.9,156 134.1,156 
		134.1,139.3 116.8,139.3 116.8,156 103.6,156 103.6,126.7 89.9,126.7 	"/>
	<text transform="matrix(1 0 0 1 47 193.5)" class="st3 st4 st5">AGUA Y SOCIEDAD</text>
</g>
<g id="Capa_3" class="st1">
	<polygon class="st3" points="125.3,138.5 129.7,138.5 129.7,140.5 132.7,135.9 135.7,135.9 138.7,131.9 140.7,131.9 142.7,129.9 
		138.7,127.9 137.7,122.5 142.7,122.5 144.7,124.9 147,122.5 152,122.5 155.3,115.5 153.3,110.9 153,107.9 155.3,107.9 158.3,104.5 
		155.7,104.5 157,100.4 161.7,100.4 159.3,96.2 156,96.2 155.7,93.5 150.7,90.5 146,90.5 147.7,94.5 145.7,97.2 140.7,97.9 
		139,100.4 135.7,98.9 133.7,100.4 131.7,100.4 125.3,98.9 125.3,102.2 122.3,102.2 120.7,103.5 120.7,105.9 117.3,108.9 
		115.3,113.2 115.3,118.5 117.3,120.5 118.7,124.9 115.3,127.2 118.7,131.5 121.3,136.2 	"/>
	<path class="st6" d="M201.2,31.1L14.9,113.6c0,0,7.3,19.1,1.9,35.3l27.4,11.3c0,0,23.6-34.1,66-16.9c0,0,35.3,14.3,30.4,54.8
		l53.3,21.4C193.7,219.4,243.2,134.1,201.2,31.1z"/>
	<polygon class="st3" points="129.7,145.2 136.2,145.2 136.2,148.2 140.7,141.2 145.2,141.2 149.7,135.2 152.7,135.2 155.7,132.2 
		149.7,129.2 148.2,121.2 155.7,121.2 158.7,124.7 162.2,121.2 169.7,121.2 174.7,110.7 171.7,103.7 171.2,99.2 174.7,99.2 
		179.2,94.2 175.2,94.2 177.2,87.9 184.2,87.9 180.7,81.7 175.7,81.7 175.2,77.7 167.7,73.2 160.7,73.2 163.2,79.2 160.2,83.2 
		152.7,84.2 150.2,87.9 145.2,85.7 142.2,87.9 139.2,87.9 129.7,85.7 129.7,90.7 125.2,90.7 122.7,92.7 122.7,96.2 117.7,100.7 
		114.7,107.2 114.7,115.2 117.7,118.2 119.7,124.7 114.7,128.2 119.7,134.7 123.7,141.7 	"/>
	<text transform="matrix(1 0 0 1 47 193.5)" class="st3 st4 st5">AGUA Y SOCIEDAD</text>
	<text transform="matrix(1 0 0 1 109 137.5)" class="st3 st4 st5">AGUA Y SOCIEDAD</text>
</g>
<g id="Capa_4" class="st1">
	<circle class="st7" cx="124.8" cy="124.4" r="40.4"/>
	<path class="st3" d="M109.1,146.3c9.1-0.4,9.1-4.1,9.1-4.1s13.2-5.6,10.3-11.1s-10.3-6.4-10.3-6.4c-1.8-4-13.1-6.1-9.8-3.9
		s2.5,5.3,2.5,5.3c-4.1-0.4-7,2.5-7,2.5c-5.2-5.8-8.6-3.8-8.6-3.8c5.8,5.1,5.5,9,5.5,9s-0.1,3.3-4.8,8.9c-3.9,4.8,9.3-6.4,9.3-6.4
		c2.4,3.6,6.8,4.5,6.8,4.5c1.8,1.6-3,4.9-3,4.9S106.1,146.5,109.1,146.3z"/>
	<circle class="st3" cx="135.9" cy="133.8" r="3.4"/>
	<circle class="st3" cx="141" cy="122.5" r="3.2"/>
	<circle class="st3" cx="135.6" cy="111.1" r="1.7"/>
	<circle class="st3" cx="148.5" cy="104.2" r="5.6"/>
	<text transform="matrix(1 0 0 1 47 193.5)" class="st3 st4 st5">AGUA Y SOCIEDAD</text>
</g>
<g id="Capa_5">
	<path class="st8" d="M15.6,211.3l5-158.8c0,0,25.2-1.5,38-24.3l27.5,12c0,0-11.5,38.5,25,61.5c0,0,45.2,25.5,73.7-20l49.3,20.5
		C234.1,102.3,166.3,225.6,15.6,211.3z"/>
	<path class="st9" d="M62.6,132.2"/>
	<path class="st9" d="M120.6,99.5c0,0-0.5-7.5-9.3-8.8s-21,2.3-21,2.3s6.5,1.5,6.8,3.8s2.5,9.8,6.8,11.3c0,0,5.6,5.4,14,1.2
		c0,0-2.8-11.7-12.4-13.2c0,0,13.9,3.5,15.1,10.3c0,0,2.8,20.5,0,21.8c0,0-15.5-0.5-26,16.5h60.5c0,0-9.3-16-26.8-17.3
		c0,0-4.2-24.5-0.7-29.8c3.5-5.3,3.4-10.7,18.5-20.5c0,0-19.6,16.6-17.3,26.5c1.5,6.4,9.8,4.5,9.8,4.5s8-6.3,9.8-13s-2-17.8,2.3-21
		c0,0-16.4-2.2-25.7,10.5C124.8,84.5,118.8,97,120.6,99.5"/>
	<text transform="matrix(1 0 0 1 68 193.5)" class="st9 st4 st5">INVERNADERO</text>
</g>
<g id="Capa_6" class="st1">
	<path class="st10" d="M39.9,114.5l133.5-78.4c0,0,7.5,16.6,35.3,20.4l-6.8,156.3C201.9,212.8,104.1,201,39.9,114.5z"/>
	<path class="st11" d="M110.3,99.9v23.8c0,0,2.3,14.4,16.4,14.1c14-0.3,17.2-15.6,17.2-15.6V99.9C143.9,99.9,126,105.8,110.3,99.9z
		 M128.1,114.2c1.4-2.4,4.6-4.1,7.4-4.2c2.5-0.1,2.5,3.7,0,3.8c-1.4,0.1-3.4,1.1-4.1,2.4C130.2,118.1,126.9,116.3,128.1,114.2z
		 M117.9,109.6c2.5-0.1,5.6,1.5,6.8,3.6c0.2,0.3,0.2,0.6,0.2,0.8c0.5,1.1-0.1,2.7-1.7,2.7c-1.1,0-1.7-0.7-1.8-1.5
		c0,0-0.1-0.1-0.1-0.1c-0.6-1-2.4-1.8-3.5-1.8C115.4,113.4,115.4,109.7,117.9,109.6z M137.6,120.7c-1.3,4.9-5.1,9.9-10.7,9.8
		c-0.3,0-0.6-0.1-0.8-0.2c-5-0.6-10.6-4.5-10.2-9.9c0.2-2.4,4-2.4,3.8,0c-0.2,3.5,3.9,6,7.1,6.2c0.1,0,0.2,0.1,0.4,0.1
		c3.8-0.1,6-3.8,6.8-7C134.5,117.3,138.2,118.3,137.6,120.7z"/>
	<path class="st11" d="M147.9,117.3h20.8c0,0,7.5,3.8,0,9.4h-22.2C146.5,126.7,149.4,122.5,147.9,117.3z"/>
	<path class="st11" d="M147.5,99.9c0,0,1.2,8.3,0,13.5h3.8V99.9H147.5z"/>
	<polygon class="st11" points="154.7,99.9 158.1,99.9 158.1,112.1 159,113.4 153.8,113.4 154.7,112.3 	"/>
	<polyline class="st11" points="151.3,113.4 152.2,113.4 151.3,112.3 	"/>
	<polygon class="st11" points="162.4,99.9 165.9,99.9 165.9,112.1 166.8,113.4 161.6,113.4 162.5,112.3 	"/>
	<path class="st11" d="M137.9,95.8h30.2c0,0,9.1-4.9,0-9.7h-30.2C137.9,86.1,130.2,90.7,137.9,95.8z"/>
	<path class="st11" d="M116.7,86.1c-3.2-0.6-4.6,3.3-4.6,3.3c-5.1,10.3-9.9,7.7-9.9,7.7c3.2-8,0-8.8,0-8.8
		c-16.8-5.2-20.8,22.2-20.8,22.2c1.9,14.6,11.5,17.8,17.3,17.8s8.5-2.7,8.5-2.7c-1.6-0.6-1.8-4.5-1.8-4.5c-6.7,3.3-6.7-3.9-6.7-3.9
		c3.4-6.3,5.4-2.7,6.5-3.3c1.1-0.6,0.2-12.7,0.2-12.7c-1-0.5,1.8-5,3.8-5.5c2.1-0.5,15.7,1.9,15.7,1.9
		C124.7,88.5,119.9,86.8,116.7,86.1z M92.6,120.6c-6.2,0-6.2-9.4,0-9.4C98.8,111.2,98.8,120.6,92.6,120.6z M99.8,104.2
		c-0.3,1.5-1.5,2.6-2.8,3.2c0,0,0,0-0.1,0c-1.2,0.8-2.7,1.1-4.1,0.8c-2.6-0.6-3.9-3.4-3.4-5.8c0.4-1.5,1.3-2.8,2.4-3.7
		c2.1-1.7,4.7-1.9,6.8,0c1.3,1.2,1.7,3.3,1.1,5C99.9,103.9,99.9,104.1,99.8,104.2z"/>
	<circle class="st12" cx="133" cy="105.6" r="3.6"/>
	<ellipse class="st12" cx="134.8" cy="94.7" rx="4.6" ry="4.9"/>
	<ellipse class="st11" cx="103.1" cy="118.1" rx="0.8" ry="0.8"/>
	<ellipse class="st11" cx="94.7" cy="102.9" rx="2" ry="2"/>
	<ellipse class="st11" cx="92.5" cy="116.8" rx="1.3" ry="1.3"/>
	<text transform="matrix(1 0 0 1 88 195.5)" class="st3 st4 st5">CULTURA</text>
</g>
<g id="Capa_7" class="st1">
	<path class="st13" d="M216.1,143.3L80.4,217.2C23,141.1,45.1,33.1,45.1,33.1l174.4,64.1C219.5,97.2,206.6,116.7,216.1,143.3z"/>
	<rect x="-0.5" y="-0.5" class="st13" width="250" height="250"/>
	<path class="st3" d="M84.5,148.7L95,160.3l12.8-11.6h30l14.6-14.6c0,0,4.3-8.5-3.8-5.3c-2.8,1.1-13,11.9-13,11.9l-23.3-0.3
		c0,0-0.5-3.3,1.3-4.8l18.8-0.2c0,0,3.1-2.3-0.1-4.2l-28.4,0.2L84.5,148.7z"/>
	<path class="st3" d="M104.9,100.2"/>
	<path class="st3" d="M120.9,121.1c25.6-0.5,15.8-22.8,15.8-22.8l-15.8-23.7l-16,23.3C104.9,97.9,97.4,121.6,120.9,121.1z"/>
	<text transform="matrix(1 0 0 1 47 195.5)" class="st3 st4 st5">AGUA Y SOCIEDAD</text>
</g>
</svg>
