<svg xmlns="http://www.w3.org/2000/svg" width="38" height="38" fill="none"><g fill="#fff" clip-path="url(#a)"><path d="M18.865.872C12.893.872 8 5.752 8 11.708c0 2.307.737 4.452 1.984 6.215l7.556 13.062c1.058 1.383 1.761 1.12 2.641-.073l8.335-14.183c.168-.304.3-.628.415-.96.529-1.289.8-2.668.8-4.061C29.732 5.752 24.839.872 18.866.872m0 5.077c3.217 0 5.774 2.552 5.774 5.759s-2.558 5.757-5.774 5.757-5.774-2.55-5.774-5.757 2.558-5.759 5.774-5.759"/><path d="m25.772 18.735-.017.046.015-.042zm-12.75 7.36c-5.159.729-8.768 2.473-8.768 5.04 0 3.458 6.03 6.262 14.61 6.262s14.61-2.803 14.61-6.262c0-2.567-3.608-4.311-8.767-5.04l-.715 1.217c3.889.54 6.56 1.673 6.56 2.989 0 1.844-5.232 3.34-11.688 3.34-6.455 0-11.688-1.496-11.688-3.34 0-1.312 2.654-2.444 6.555-2.986z"/></g><defs><clipPath id="a"><path fill="#fff" d="M.602.872h36.525v36.525H.602z"/></clipPath></defs></svg>